# xmcd
# Copyright (C) 1995-1998 Ti Kan
#
# Track frame offsets:
#       150
#       16844
#       36185
#       55314
#       76576
#       94110
#       94735
#       109118
#       132341
#       143279
#       173878
#       194793
#       212704
#
# Disc length: 3248 seconds
#
# Revision: 0
# Processed by: cddbd v1.5.2PL0 Copyright (c) Steve Scherf et al.
# Submitted via: CD-Import v1.0
#
DISCID=a80cae0d
DTITLE=Dodo Hug - Kreis
DYEAR=08
DGENRE=
TTITLE0=The Dodo
TTITLE1=Culture
TTITLE2=Velolied
TTITLE3=De Pöschtler
TTITLE4=Am Pfyl Na
TTITLE5=Botox
TTITLE6=Living Doll
TTITLE7=Fonds Del Mar
TTITLE8=Kreiswerdung
TTITLE9=Parfum
TTITLE10=La Via Mala
TTITLE11=Google Me
TTITLE12=Bärnblues (Live)
EXTD=
EXTT0=
EXTT1=
EXTT2=
EXTT3=
EXTT4=
EXTT5=
EXTT6=
EXTT7=
EXTT8=
EXTT9=
EXTT10=
EXTT11=
EXTT12=
PLAYORDER=
